<svg width="1100" height="250.00000000000003" xmlns="http://www.w3.org/2000/svg">

 <g>
  <title>Layer 1</title>
  <rect id="svg_1" height="73" width="73" y="-95.67253" x="168.6385" stroke="#000" fill="none"/>
  <rect id="svg_2" height="73" width="73" y="-95.67253" x="168.6385" stroke="#000" fill="none"/>
  <rect id="svg_4" height="73" width="73" y="-96.51286" x="168.6385" stroke="#000" fill="none"/>
  <rect id="svg_21" height="73" width="73" y="53.84849" x="35.52101" stroke="#000" fill="none"/>
  <rect id="svg_25" height="73" width="73" y="53.84849" x="718.02101" stroke="#000" fill="none"/>
  <rect id="svg_9" height="73" width="73" y="53.01515" x="901.35434" stroke="#000" fill="none"/>
  <rect stroke-width="5" id="svg_13" height="73" width="73" y="53.84849" x="207.52101" stroke="#ff0000" fill="none"/>
  <rect id="svg_17" height="73" width="73" y="53.84849" x="376.52101" stroke="#000" fill="none"/>
  <rect id="svg_7" height="73" width="73" y="54.84849" x="547.52101" stroke="#000" fill="none"/>
  <rect id="svg_22" height="73" width="73" y="127.84849" x="35.52101" stroke="#000" fill="none"/>
  <rect id="svg_26" height="73" width="73" y="127.84849" x="718.02101" stroke="#000" fill="none"/>
  <rect id="svg_10" height="73" width="73" y="127.01515" x="901.35434" stroke="#000" fill="none"/>
  <rect id="svg_14" height="73" width="73" y="127.84849" x="207.52101" stroke="#000" fill="none"/>
  <rect id="svg_18" height="73" width="73" y="127.84849" x="376.52101" stroke="#000" fill="none"/>
  <rect stroke-width="5" id="svg_6" height="73" width="73" y="128.84849" x="547.52101" stroke="#ff0000" fill="none"/>
  <rect id="svg_23" height="73" width="73" y="53.84849" x="109.52101" stroke="#000" fill="none"/>
  <rect id="svg_27" height="73" width="73" y="53.84849" x="792.02101" stroke="#000" fill="none"/>
  <rect id="svg_11" height="73" width="73" y="53.01515" x="975.35434" stroke="#000" fill="none"/>
  <rect id="svg_15" height="73" width="73" y="53.84849" x="281.52101" stroke="#000" fill="none"/>
  <rect stroke-width="5" id="svg_19" height="73" width="73" y="53.84849" x="451.35435" stroke="#ff0000" fill="none"/>
  <rect id="svg_8" height="73" width="73" y="54.84849" x="621.52101" stroke="#000" fill="none"/>
  <rect id="svg_24" height="73" width="73" y="127.84849" x="109.52101" stroke="#000" fill="none"/>
  <rect stroke-width="5" id="svg_28" height="73" width="73" y="127.84849" x="792.02101" stroke="#ff0000" fill="none"/>
  <rect id="svg_12" height="73" width="73" y="127.01515" x="975.35434" stroke="#000" fill="none"/>
  <rect id="svg_16" height="73" width="73" y="127.84849" x="281.52101" stroke="#000" fill="none"/>
  <rect id="svg_20" height="73" width="73" y="127.84849" x="450.52101" stroke="#000" fill="none"/>
  <rect id="svg_5" height="73" width="73" y="128.84849" x="621.52101" stroke="#000" fill="none"/>
  <rect stroke-width="5" id="svg_3" height="73" width="73" y="-96.3532" x="293.6385" stroke="#ff0000" fill="none"/>
  <rect stroke-width="5" id="svg_29" height="147.45098" width="147.84314" y="53.22104" x="901.34454" stroke="#ff0000" fill="none"/>
 </g>
</svg>