<svg width="500.00000000000006" height="200" xmlns="http://www.w3.org/2000/svg">

 <g>
  <title>Layer 1</title>
  <rect id="svg_1" height="73" width="73" y="63.99157" x="161.9158" stroke="#000" fill="none"/>
  <rect id="svg_2" height="73" width="73" y="63.99157" x="161.9158" stroke="#000" fill="none"/>
  <rect id="svg_4" height="73" width="73" y="63.15123" x="161.9158" stroke="#000" fill="none"/>
  <rect id="svg_21" height="73" width="73" y="232" x="33" stroke="#000" fill="#fff"/>
  <rect id="svg_25" height="73" width="73" y="232" x="715.5" stroke="#000" fill="#fff"/>
  <rect id="svg_9" height="73" width="73" y="231.16667" x="898.83333" stroke="#000" fill="#fff"/>
  <rect stroke-width="5" id="svg_13" height="73" width="73" y="232" x="205" stroke="#ff0000" fill="#fff"/>
  <rect id="svg_17" height="73" width="73" y="232" x="374" stroke="#000" fill="#fff"/>
  <rect id="svg_7" height="73" width="73" y="233" x="545" stroke="#000" fill="#fff"/>
  <rect id="svg_22" height="73" width="73" y="306" x="33" stroke="#000" fill="#fff"/>
  <rect id="svg_26" height="73" width="73" y="306" x="715.5" stroke="#000" fill="#fff"/>
  <rect id="svg_10" height="73" width="73" y="305.16667" x="898.83333" stroke="#000" fill="#fff"/>
  <rect id="svg_14" height="73" width="73" y="306" x="205" stroke="#000" fill="#fff"/>
  <rect id="svg_18" height="73" width="73" y="306" x="374" stroke="#000" fill="#fff"/>
  <rect stroke-width="5" id="svg_6" height="73" width="73" y="307" x="545" stroke="#ff0000" fill="#fff"/>
  <rect id="svg_23" height="73" width="73" y="232" x="107" stroke="#000" fill="#fff"/>
  <rect id="svg_27" height="73" width="73" y="232" x="789.5" stroke="#000" fill="#fff"/>
  <rect id="svg_11" height="73" width="73" y="231.16667" x="972.83333" stroke="#000" fill="#fff"/>
  <rect id="svg_15" height="73" width="73" y="232" x="279" stroke="#000" fill="#fff"/>
  <rect stroke-width="5" id="svg_19" height="73" width="73" y="232" x="448.83333" stroke="#ff0000" fill="#fff"/>
  <rect id="svg_8" height="73" width="73" y="233" x="619" stroke="#000" fill="#fff"/>
  <rect id="svg_24" height="73" width="73" y="306" x="107" stroke="#000" fill="#fff"/>
  <rect stroke-width="5" id="svg_28" height="73" width="73" y="306" x="789.5" stroke="#ff0000" fill="#fff"/>
  <rect id="svg_12" height="73" width="73" y="305.16667" x="972.83333" stroke="#000" fill="#fff"/>
  <rect id="svg_16" height="73" width="73" y="306" x="279" stroke="#000" fill="#fff"/>
  <rect id="svg_20" height="73" width="73" y="306" x="448" stroke="#000" fill="#fff"/>
  <rect id="svg_5" height="73" width="73" y="307" x="619" stroke="#000" fill="#fff"/>
  <rect stroke-width="5" id="svg_3" height="73" width="73" y="63.31089" x="286.9158" stroke="#ff0000" fill="none"/>
  <rect stroke-width="5" id="svg_29" height="147.45098" width="147.84314" y="231.37255" x="898.82353" stroke="#ff0000" fill="none"/>
 </g>
</svg>